<svg xmlns="http://www.w3.org/2000/svg" xmlns:xlink="http://www.w3.org/1999/xlink" aria-hidden="true" role="img"
     viewBox="0 0 98 104" height="104" width="98" fill="#5d5a8c">
    <g>
        <path fill="none"
              d="M25.017,13.008c-0.316-0.197-0.673-0.297-1.036-0.297c-0.149,0-0.298,0.016-0.447,0.051    c-0.512,0.118-0.945,0.429-1.224,0.874c-0.277,0.445-0.366,0.97-0.247,1.482c0.118,0.512,0.428,0.944,0.873,1.224    c0.444,0.277,0.971,0.368,1.482,0.246c1.055-0.244,1.715-1.301,1.472-2.355C25.771,13.72,25.461,13.287,25.017,13.008z"/>
        <path fill="none"
              d="M9.898,74.18c-0.62,0.128-1.248,0.256-1.871,0.364c0.596,0.679,1.171,1.34,1.745,2.003    c0.522,0.601,1.049,1.205,1.588,1.819c0.284-1.527,0.546-3.062,0.778-4.606C11.407,73.875,10.647,74.026,9.898,74.18z"/>
        <path fill="none"
              d="M11.311,61.181c-0.544,0.118-1.096,0.238-1.653,0.34l3.479,3.864c0.142-1.555,0.264-3.1,0.357-4.627    C12.784,60.867,12.062,61.019,11.311,61.181z"/>
        <path fill="none"
              d="M46.021,11.201c-0.316-0.197-0.673-0.297-1.036-0.297c-0.149,0-0.298,0.016-0.447,0.051    c-0.512,0.118-0.945,0.429-1.224,0.874c-0.277,0.445-0.366,0.97-0.247,1.482c0.118,0.512,0.428,0.944,0.873,1.224    c0.445,0.277,0.971,0.37,1.483,0.246c0.512-0.118,0.945-0.429,1.224-0.874c0.277-0.445,0.366-0.97,0.247-1.482    C46.776,11.914,46.466,11.481,46.021,11.201z"/>
        <path fill="none"
              d="M13.729,48.648c-0.766,0.254-1.565,0.564-2.35,0.873c-0.598,0.234-1.206,0.474-1.811,0.691l4.201,3.227    C13.787,51.791,13.768,50.201,13.729,48.648z"/>
        <path fill="none"
              d="M12.556,35.51c-0.733,0.227-1.455,0.478-2.198,0.754c-0.47,0.175-0.946,0.352-1.434,0.521l4.238,3.255    c-0.037-0.324-0.068-0.666-0.109-0.98C12.764,37.91,12.605,36.72,12.556,35.51z"/>
        <path fill="none"
              d="M15.018,24.947c0.14-0.283,0.277-0.562,0.408-0.839c-0.75-0.128-1.526-0.234-2.349-0.328    c-0.589-0.067-1.187-0.136-1.78-0.22c0.414,0.866,0.849,1.747,1.284,2.629c0.35,0.709,0.698,1.416,1.037,2.117    c0.275-0.825,0.583-1.646,0.962-2.453C14.721,25.549,14.869,25.248,15.018,24.947z"/>
        <path fill="none"
              d="M85.522,35.88c-3.591-1.57-7.384-2.898-11.054-4.183c-6.076-2.125-12.358-4.325-18.002-7.713    c-2.538-1.523-6.006-3.996-6.812-7.868c-0.227-1.09-0.219-2.198-0.212-3.268c0.011-1.529,0.022-2.973-0.673-4.089    c-0.436-0.698-1.307-1.228-2.453-1.489C44.7,6.902,42.85,7.142,41.711,7.866c-1.726,1.098-2.241,3.062-2.838,5.338    c-0.101,0.386-0.204,0.773-0.312,1.161c-0.12,0.425-0.503,0.722-0.943,0.734L31.52,15.26c-0.389-0.01-0.727-0.222-0.903-0.538    c-0.307-0.134-0.548-0.404-0.602-0.76c-0.21-1.397-1.072-2.731-2.369-3.66c-1.382-0.988-3.046-1.397-4.571-1.12    c-3.036,0.553-5.498,3.732-5.375,6.942c0.027,0.691,0.151,1.387,0.282,2.127c0.201,1.129,0.409,2.3,0.272,3.528    c-0.07,0.634-0.238,1.227-0.442,1.803c-0.002,0.008,0.001,0.015-0.001,0.023c-0.004,0.015-0.015,0.026-0.02,0.041    c-0.274,0.76-0.62,1.485-0.969,2.192l-0.42,0.868c-1.856,3.961-2.346,8.207-1.379,11.957c0.005,0.021-0.001,0.041,0.003,0.063    c0.004,0.021,0.017,0.038,0.02,0.06c1.118,8.647,1.02,21.192-0.694,33.629c0.008,0.04,0.029,0.074,0.032,0.116    c0.012,0.182-0.039,0.348-0.114,0.501c-0.853,6.002-2.081,11.963-3.742,17.433c16.326,3.461,39.389,3.862,55.586-2.879    c-0.456-2.066-1.418-6.133-2.352-10.084c-1.082-4.578-2.201-9.309-2.547-10.984c0-0.001,0-0.002-0.001-0.003    c-0.002-0.008-0.004-0.018-0.005-0.026c-0.013-0.064,0-0.125-0.001-0.188c-0.001-0.062-0.016-0.121-0.005-0.184    c0.001-0.004,0.004-0.007,0.005-0.012c0.02-0.111,0.066-0.212,0.12-0.309c0.01-0.017,0.012-0.038,0.022-0.054    c0.122-0.19,0.314-0.326,0.541-0.4c0.029-0.009,0.053-0.028,0.082-0.035c0.007-0.002,0.012-0.007,0.019-0.008    c0.119-0.027,0.236-0.021,0.349-0.005c0.009,0.001,0.017-0.002,0.026-0.001c0.001,0,0.002,0,0.003,0    c0.012,0.002,0.025,0.003,0.037,0.006c3.033,0.524,6.101,0.918,9.121,1.169c1.623,0.136,3.186,0.207,4.5-0.37    c1.093-0.48,1.423-1.151,1.137-2.314c-0.279-1.135-0.938-1.34-2.901-1.676l-0.522-0.091c-4.964-0.893-10.037-2.095-14.943-3.256    c-4.88-1.157-9.924-2.351-14.832-3.235c-0.655-0.118-2.648-0.476-3.026-2.182c-0.147-0.661,0.006-1.32,0.428-1.857    c0.789-1.001,2.323-1.381,3.397-1.401c5.621-0.144,11.185,1.507,16.517,3.065l1.24,0.36c5.544,1.609,11.438,3.119,17.15,2.377    c5.09-0.659,11.036-3.787,12.848-9.289c0.364-1.104,0.7-2.762,0.244-4.395C91.874,39.018,88.426,37.151,85.522,35.88z     M18.972,46.703c0.002,0.305,0.023,0.608-0.28,0.944c-0.324,0.359-0.866,0.406-1.248,0.129c-0.366-0.267-0.407-0.568-0.467-0.867    c0.022-0.307,0.031-0.613,0.333-0.949c0.296-0.33,0.793-0.374,1.143-0.118C18.816,46.109,18.887,46.407,18.972,46.703z     M19.355,58.394c-0.005,0.483-0.042,0.988-0.442,1.403c-0.294,0.306-0.781,0.315-1.087,0.021    c-0.041-0.039-0.076-0.081-0.106-0.126l-0.049-0.074c-0.279-0.422-0.275-0.766-0.321-1.129c0.036-0.366,0.028-0.717,0.264-1.167    l0.032-0.062c0.181-0.345,0.607-0.479,0.953-0.298c0.047,0.025,0.093,0.056,0.132,0.089    C19.166,57.423,19.279,57.915,19.355,58.394z M16.925,35.322c0.214-0.316,0.643-0.399,0.959-0.185    c0.077,0.052,0.142,0.12,0.19,0.193c0.331,0.504,0.368,1.006,0.419,1.509c-0.032,0.502-0.046,1.004-0.386,1.503    c-0.234,0.345-0.704,0.435-1.049,0.2c-0.083-0.056-0.153-0.13-0.206-0.209c-0.333-0.504-0.34-1.006-0.366-1.508    C16.544,36.324,16.587,35.822,16.925,35.322z M18.232,80.794c-0.227,0.482-0.506,0.97-1.079,1.2    c-0.382,0.153-0.816-0.032-0.969-0.414c-0.029-0.071-0.046-0.144-0.051-0.217l-0.007-0.09c-0.041-0.528,0.125-0.86,0.247-1.236    c0.197-0.345,0.341-0.694,0.738-1.049l0.053-0.048c0.282-0.252,0.714-0.227,0.966,0.054c0.048,0.054,0.087,0.116,0.115,0.178    C18.494,79.733,18.384,80.281,18.232,80.794z M19.526,68.992c-0.099,0.358-0.18,0.72-0.58,1.02    c-0.374,0.28-0.905,0.204-1.186-0.17c-0.016-0.022-0.032-0.045-0.046-0.068c-0.26-0.428-0.2-0.793-0.158-1.163    c0.123-0.354,0.233-0.71,0.632-1.01c0.342-0.257,0.827-0.189,1.084,0.153c0.016,0.021,0.031,0.043,0.044,0.065    C19.574,68.247,19.543,68.618,19.526,68.992z M21.654,43.404l-0.021,0.049c-0.159,0.377-0.593,0.553-0.97,0.394    c-0.088-0.037-0.166-0.091-0.231-0.154c-0.45-0.443-0.548-1-0.617-1.541c0.013-0.548,0.056-1.11,0.434-1.612    c0.226-0.299,0.651-0.359,0.95-0.134c0.071,0.053,0.128,0.118,0.171,0.189l0.024,0.04c0.295,0.489,0.335,0.924,0.422,1.367    C21.822,42.451,21.876,42.879,21.654,43.404z M22.319,51.986c0.045,0.027,0.089,0.061,0.126,0.096    c0.388,0.366,0.484,0.772,0.594,1.177c0.028,0.416,0.074,0.829-0.203,1.286c-0.23,0.381-0.726,0.504-1.108,0.273    c-0.048-0.029-0.095-0.066-0.135-0.103c-0.39-0.366-0.457-0.776-0.542-1.184c-0.003-0.419-0.02-0.836,0.255-1.294    C21.517,51.889,21.97,51.776,22.319,51.986z M22.115,78.407c-0.261,0.359-0.763,0.438-1.122,0.177    c-0.048-0.035-0.094-0.078-0.131-0.12c-0.355-0.405-0.384-0.825-0.432-1.244c0.035-0.423,0.056-0.845,0.371-1.28    c0.238-0.328,0.697-0.402,1.026-0.164c0.045,0.033,0.087,0.072,0.123,0.112c0.353,0.405,0.412,0.824,0.485,1.241    C22.423,77.551,22.432,77.972,22.115,78.407z M23.345,67.752L23.31,67.84c-0.153,0.38-0.585,0.565-0.966,0.412    c-0.07-0.028-0.136-0.068-0.192-0.114c-0.481-0.393-0.601-0.951-0.665-1.486c0.017-0.541,0.091-1.103,0.513-1.552    c0.258-0.274,0.69-0.287,0.964-0.029c0.052,0.049,0.094,0.104,0.127,0.162l0.04,0.072c0.257,0.462,0.28,0.83,0.359,1.213    C23.487,66.906,23.542,67.264,23.345,67.752z M24.872,18.55c-0.301,0.069-0.604,0.104-0.905,0.104    c-0.736,0-1.459-0.207-2.098-0.606c-0.901-0.563-1.53-1.442-1.769-2.479c-0.239-1.035-0.061-2.101,0.502-3.002    c0.563-0.901,1.443-1.529,2.478-1.769c1.039-0.236,2.102-0.061,3.003,0.502c0.901,0.563,1.53,1.442,1.77,2.479    C28.346,15.916,27.008,18.056,24.872,18.55z M48.356,14.975c-0.563,0.901-1.443,1.529-2.478,1.769    c-0.301,0.069-0.604,0.104-0.905,0.104c-0.736,0-1.459-0.207-2.098-0.606c-0.901-0.563-1.53-1.442-1.77-2.479    c-0.239-1.035-0.061-2.101,0.502-3.002c0.563-0.901,1.443-1.529,2.478-1.769c1.04-0.236,2.103-0.061,3.003,0.502    c0.901,0.563,1.53,1.442,1.77,2.479C49.096,13.008,48.918,14.074,48.356,14.975z M83.85,50.993c-0.329,0.74-1.046,1.22-1.789,1.22    c-0.064,0-0.128-0.004-0.192-0.01c-0.66-0.079-1.25-0.533-1.547-1.186c-0.224-0.494-0.25-1.009-0.248-1.403    c0.008-0.944,0.17-1.869,0.482-2.753c0.182-0.517,0.744-0.787,1.254-0.626c0.088,0.014,0.173,0.041,0.257,0.079    c1.02,0.472,1.728,1.537,1.946,2.922C84.082,49.677,84.141,50.34,83.85,50.993z M90.442,45.183    c-0.193,0.791-0.94,1.383-1.817,1.444c-0.053,0.004-0.106,0.006-0.16,0.006c-0.487,0-0.996-0.151-1.547-0.46    c-1.224-0.681-1.978-1.714-2.071-2.831c-0.007-0.089-0.002-0.175,0.013-0.26c0.02-0.541,0.464-0.97,1.006-0.97    c0.004,0,0.008,0,0.012,0c0.94,0.012,1.865,0.177,2.751,0.494c0.37,0.132,0.845,0.332,1.235,0.718    C90.375,43.827,90.598,44.539,90.442,45.183z"/>
        <path d="M94.705,41.663c-1.12-4.002-5.064-6.18-8.376-7.628c-3.661-1.602-7.491-2.941-11.195-4.238    c-5.98-2.093-12.163-4.258-17.631-7.54c-3.518-2.111-5.385-4.193-5.876-6.55c-0.184-0.881-0.177-1.836-0.169-2.843    c0.013-1.749,0.026-3.559-0.978-5.171c-0.722-1.159-2.042-2.007-3.716-2.387c-2.14-0.486-4.545-0.148-6.133,0.86    c-2.394,1.521-3.062,4.065-3.707,6.526c-0.036,0.138-0.072,0.273-0.108,0.411l-4.896,0.13c-0.387-1.772-1.494-3.419-3.1-4.568    c-1.825-1.306-4.049-1.836-6.104-1.466c-4.036,0.738-7.189,4.775-7.027,9.003c0.031,0.826,0.174,1.627,0.312,2.4    c0.184,1.035,0.358,2.013,0.253,2.951c-0.023,0.207-0.073,0.411-0.12,0.616c-0.925-0.174-1.888-0.285-2.828-0.391    c-1.253-0.144-2.437-0.277-3.502-0.549c-0.371-0.098-0.77,0.031-1.019,0.329c-0.249,0.295-0.306,0.708-0.148,1.06    c0.645,1.434,1.392,2.947,2.139,4.46c0.72,1.458,1.436,2.912,2.063,4.3c-0.117,0.675-0.197,1.348-0.244,2.019    c-1.027,0.283-2.003,0.63-2.939,0.979c-1.06,0.393-2.062,0.767-3.142,1.035c-0.376,0.094-0.664,0.393-0.743,0.771    c-0.08,0.38,0.065,0.769,0.372,1.005l7.286,5.597c0.098,1.209,0.177,2.463,0.233,3.771c-0.991,0.297-2.017,0.695-3.018,1.089    c-1.179,0.462-2.396,0.94-3.469,1.206c-0.376,0.092-0.665,0.393-0.744,0.771c-0.08,0.38,0.065,0.769,0.372,1.005l6.909,5.307    c-0.026,0.913-0.064,1.836-0.108,2.768c-0.919,0.12-1.83,0.316-2.718,0.509c-1.155,0.25-2.247,0.486-3.321,0.557    c-0.385,0.026-0.721,0.27-0.867,0.626c-0.145,0.358-0.073,0.767,0.185,1.055l5.983,6.645c-0.131,1.194-0.278,2.388-0.439,3.585    c-0.959,0.122-1.959,0.326-2.934,0.527c-1.215,0.248-2.471,0.506-3.552,0.578c-0.385,0.026-0.721,0.27-0.867,0.628    c-0.145,0.356-0.073,0.765,0.185,1.053c1.066,1.182,2.029,2.292,2.993,3.402c0.848,0.977,1.707,1.962,2.627,2.991    c-0.719,3.47-1.58,6.853-2.595,10.05c-0.086,0.27-0.054,0.563,0.087,0.807c0.141,0.244,0.378,0.419,0.653,0.482    c7.48,1.678,16.47,2.715,25.644,2.715c11.612,0,23.516-1.665,33.012-5.804c0.437-0.189,0.681-0.659,0.584-1.125    c-0.338-1.643-1.457-6.371-2.537-10.943c-0.856-3.622-1.734-7.333-2.231-9.537c2.624,0.415,5.262,0.757,7.868,0.974    c0.655,0.055,1.324,0.1,1.994,0.1c1.183,0,2.369-0.144,3.484-0.632c1.991-0.876,2.803-2.522,2.282-4.639    c-0.618-2.513-2.599-2.853-4.516-3.182L74.1,60.036c-4.91-0.883-9.956-2.078-14.835-3.235c-4.905-1.161-9.977-2.363-14.94-3.256    c-1.232-0.222-1.394-0.541-1.371-0.809c0.264-0.334,1.095-0.62,1.852-0.634c5.36-0.116,10.729,1.468,15.914,2.985l1.243,0.362    c5.748,1.667,11.873,3.231,17.971,2.44c6.975-0.905,12.667-5.088,14.503-10.658C95.082,45.267,95.175,43.343,94.705,41.663z     M12.581,26.188c-0.435-0.881-0.87-1.763-1.284-2.629c0.592,0.085,1.19,0.154,1.78,0.22c0.823,0.094,1.599,0.2,2.349,0.328    c-0.13,0.277-0.268,0.556-0.408,0.839c-0.149,0.301-0.297,0.602-0.438,0.905c-0.378,0.807-0.687,1.628-0.962,2.453    C13.279,27.604,12.93,26.897,12.581,26.188z M8.923,36.785c0.488-0.169,0.964-0.346,1.434-0.521    c0.744-0.276,1.466-0.527,2.198-0.754c0.049,1.21,0.208,2.4,0.496,3.55c0.041,0.314,0.072,0.656,0.109,0.98L8.923,36.785z     M11.379,49.521c0.785-0.309,1.585-0.619,2.35-0.873c0.039,1.553,0.059,3.143,0.04,4.791l-4.201-3.227    C10.173,49.995,10.781,49.755,11.379,49.521z M9.658,61.521c0.557-0.102,1.109-0.222,1.653-0.34    c0.751-0.162,1.474-0.314,2.184-0.423c-0.093,1.527-0.215,3.072-0.357,4.627L9.658,61.521z M9.772,76.547    c-0.575-0.663-1.149-1.324-1.745-2.003c0.623-0.108,1.251-0.236,1.871-0.364c0.749-0.154,1.509-0.305,2.239-0.42    c-0.231,1.544-0.494,3.079-0.778,4.606C10.821,77.753,10.294,77.148,9.772,76.547z M92.521,46.601    c-1.812,5.501-7.758,8.63-12.848,9.289c-5.712,0.742-11.606-0.767-17.15-2.377l-1.24-0.36c-5.332-1.558-10.895-3.209-16.517-3.065    c-1.074,0.02-2.608,0.399-3.397,1.401c-0.422,0.537-0.575,1.196-0.428,1.857c0.378,1.706,2.371,2.064,3.026,2.182    c4.908,0.883,9.953,2.078,14.832,3.235c4.906,1.161,9.979,2.363,14.943,3.256l0.522,0.091c1.964,0.336,2.622,0.541,2.901,1.676    c0.285,1.163-0.044,1.834-1.137,2.314c-1.313,0.576-2.877,0.506-4.5,0.37c-3.02-0.251-6.088-0.645-9.121-1.169    c-0.012-0.003-0.024-0.003-0.037-0.006c-0.001,0-0.002,0-0.003,0c-0.009-0.001-0.017,0.002-0.026,0.001    c-0.113-0.016-0.23-0.022-0.349,0.005c-0.007,0.001-0.012,0.007-0.019,0.008c-0.029,0.007-0.053,0.026-0.082,0.035    c-0.227,0.074-0.419,0.21-0.541,0.4c-0.01,0.016-0.013,0.037-0.022,0.054c-0.055,0.096-0.1,0.198-0.12,0.309    c-0.001,0.004-0.004,0.007-0.005,0.012c-0.011,0.063,0.004,0.122,0.005,0.184c0.001,0.063-0.013,0.124,0.001,0.188    c0.002,0.008,0.004,0.018,0.005,0.026c0,0.001,0,0.002,0.001,0.003c0.346,1.674,1.464,6.405,2.547,10.984    c0.935,3.951,1.896,8.018,2.352,10.084c-16.197,6.741-39.26,6.339-55.586,2.879c1.661-5.47,2.889-11.432,3.742-17.433    c0.075-0.153,0.126-0.319,0.114-0.501c-0.003-0.042-0.024-0.076-0.032-0.116c1.714-12.438,1.812-24.982,0.694-33.629    c-0.003-0.022-0.016-0.038-0.02-0.06c-0.004-0.021,0.002-0.041-0.003-0.063c-0.967-3.75-0.477-7.996,1.379-11.957l0.42-0.868    c0.349-0.707,0.694-1.432,0.969-2.192c0.005-0.015,0.016-0.026,0.02-0.041c0.002-0.008-0.001-0.015,0.001-0.023    c0.204-0.576,0.371-1.169,0.442-1.803c0.137-1.228-0.072-2.398-0.272-3.528c-0.132-0.74-0.256-1.436-0.282-2.127    c-0.123-3.209,2.339-6.389,5.375-6.942c1.525-0.277,3.188,0.132,4.571,1.12c1.297,0.929,2.159,2.263,2.369,3.66    c0.053,0.357,0.294,0.627,0.602,0.76c0.176,0.316,0.513,0.528,0.903,0.538l6.097-0.161c0.441-0.012,0.823-0.309,0.943-0.734    c0.108-0.388,0.211-0.775,0.312-1.161c0.597-2.276,1.113-4.24,2.838-5.338C42.85,7.142,44.7,6.902,46.317,7.27    c1.145,0.262,2.017,0.791,2.453,1.489c0.695,1.116,0.684,2.56,0.673,4.089c-0.008,1.07-0.016,2.178,0.212,3.268    c0.806,3.872,4.273,6.345,6.812,7.868c5.644,3.388,11.926,5.588,18.002,7.713c3.669,1.285,7.463,2.613,11.054,4.183    c2.904,1.271,6.352,3.138,7.243,6.326C93.221,43.839,92.885,45.498,92.521,46.601z"/>
        <path d="M26.083,11.3c-0.901-0.563-1.965-0.738-3.003-0.502c-1.035,0.24-1.915,0.868-2.478,1.769    c-0.563,0.901-0.741,1.968-0.502,3.002c0.239,1.037,0.868,1.916,1.769,2.479c0.639,0.399,1.363,0.606,2.098,0.606    c0.301,0,0.604-0.035,0.905-0.104c2.136-0.494,3.474-2.635,2.981-4.771C27.613,12.742,26.984,11.862,26.083,11.3z M24.418,16.587    c-0.511,0.122-1.038,0.031-1.482-0.246c-0.445-0.279-0.755-0.712-0.873-1.224c-0.119-0.512-0.031-1.037,0.247-1.482    c0.278-0.445,0.712-0.756,1.224-0.874c0.149-0.035,0.298-0.051,0.447-0.051c0.363,0,0.72,0.1,1.036,0.297    c0.445,0.279,0.755,0.712,0.873,1.224C26.132,15.286,25.472,16.343,24.418,16.587z"/>
        <path d="M47.088,9.494c-0.9-0.563-1.964-0.738-3.003-0.502c-1.035,0.24-1.915,0.868-2.478,1.769    c-0.563,0.901-0.741,1.968-0.502,3.002c0.24,1.037,0.869,1.916,1.77,2.479c0.639,0.399,1.362,0.606,2.098,0.606    c0.301,0,0.604-0.035,0.905-0.104c1.035-0.24,1.915-0.868,2.478-1.769c0.563-0.901,0.741-1.968,0.502-3.003    C48.617,10.936,47.989,10.056,47.088,9.494z M46.647,13.907c-0.278,0.445-0.712,0.756-1.224,0.874    c-0.512,0.124-1.038,0.031-1.483-0.246c-0.445-0.279-0.755-0.712-0.873-1.224c-0.119-0.512-0.031-1.037,0.247-1.482    c0.278-0.445,0.712-0.756,1.224-0.874c0.148-0.035,0.298-0.051,0.447-0.051c0.363,0,0.72,0.1,1.036,0.297    c0.445,0.279,0.755,0.712,0.873,1.224C47.013,12.937,46.924,13.462,46.647,13.907z"/>
        <path d="M82.067,46.314c-0.084-0.037-0.169-0.065-0.257-0.079c-0.511-0.161-1.072,0.108-1.254,0.626    c-0.312,0.883-0.474,1.808-0.482,2.753c-0.002,0.393,0.024,0.909,0.248,1.403c0.297,0.653,0.887,1.108,1.547,1.186    c0.064,0.006,0.128,0.01,0.192,0.01c0.743,0,1.46-0.48,1.789-1.22c0.291-0.653,0.232-1.316,0.163-1.757    C83.796,47.851,83.088,46.786,82.067,46.314z"/>
        <path d="M88.628,42.605c-0.885-0.317-1.81-0.482-2.751-0.494c-0.004,0-0.008,0-0.012,0c-0.542,0-0.987,0.429-1.006,0.97    c-0.015,0.085-0.02,0.171-0.013,0.26c0.092,1.118,0.847,2.151,2.071,2.831c0.552,0.309,1.06,0.46,1.547,0.46    c0.054,0,0.107-0.002,0.16-0.006c0.878-0.061,1.624-0.653,1.817-1.444c0.155-0.643-0.067-1.356-0.579-1.859    C89.473,42.938,88.998,42.737,88.628,42.605z"/>
        <path d="M17.059,38.542c0.345,0.234,0.815,0.145,1.049-0.2c0.339-0.5,0.353-1.002,0.386-1.503    c-0.051-0.502-0.088-1.004-0.419-1.509c-0.048-0.073-0.113-0.141-0.19-0.193c-0.316-0.214-0.745-0.131-0.959,0.185    c-0.338,0.5-0.381,1.001-0.438,1.503c0.026,0.502,0.033,1.004,0.366,1.508C16.905,38.412,16.976,38.486,17.059,38.542z"/>
        <path d="M21.395,40.635l-0.024-0.04c-0.043-0.071-0.101-0.136-0.171-0.189c-0.299-0.225-0.725-0.166-0.95,0.134    c-0.378,0.501-0.421,1.063-0.434,1.612c0.069,0.542,0.167,1.099,0.617,1.541c0.064,0.063,0.143,0.117,0.231,0.154    c0.376,0.159,0.811-0.017,0.97-0.394l0.021-0.049c0.222-0.525,0.168-0.953,0.163-1.402C21.731,41.559,21.691,41.124,21.395,40.635    z"/>
        <path d="M17.309,45.96c-0.302,0.336-0.31,0.642-0.333,0.949c0.06,0.299,0.102,0.599,0.467,0.867    c0.383,0.278,0.924,0.23,1.248-0.129c0.303-0.336,0.283-0.639,0.28-0.944c-0.085-0.296-0.156-0.594-0.52-0.861    C18.102,45.586,17.605,45.63,17.309,45.96z"/>
        <path d="M21.307,52.238c-0.275,0.457-0.258,0.874-0.255,1.294c0.086,0.408,0.153,0.818,0.542,1.184    c0.04,0.037,0.087,0.073,0.135,0.103c0.381,0.23,0.877,0.108,1.108-0.273c0.277-0.458,0.23-0.871,0.203-1.286    c-0.11-0.404-0.206-0.81-0.594-1.177c-0.037-0.035-0.081-0.069-0.126-0.096C21.97,51.776,21.517,51.889,21.307,52.238z"/>
        <path d="M18.599,56.962c-0.345-0.181-0.772-0.047-0.953,0.298l-0.032,0.062c-0.235,0.45-0.228,0.8-0.264,1.167    c0.045,0.363,0.042,0.707,0.321,1.129l0.049,0.074c0.03,0.045,0.065,0.087,0.106,0.126c0.306,0.294,0.793,0.285,1.087-0.021    c0.4-0.416,0.436-0.921,0.442-1.403c-0.076-0.479-0.189-0.97-0.624-1.343C18.692,57.018,18.646,56.986,18.599,56.962z"/>
        <path d="M23.131,65.306l-0.04-0.072c-0.033-0.059-0.076-0.114-0.127-0.162c-0.274-0.258-0.706-0.245-0.964,0.029    c-0.422,0.448-0.496,1.011-0.513,1.552c0.064,0.535,0.184,1.093,0.665,1.486c0.056,0.045,0.122,0.085,0.192,0.114    c0.38,0.153,0.813-0.031,0.966-0.412l0.036-0.088c0.196-0.488,0.142-0.845,0.144-1.233C23.411,66.136,23.387,65.768,23.131,65.306    z"/>
        <path d="M19.272,67.754c-0.257-0.342-0.743-0.41-1.084-0.153c-0.399,0.3-0.509,0.656-0.632,1.01    c-0.042,0.369-0.102,0.735,0.158,1.163c0.014,0.023,0.03,0.046,0.046,0.068c0.281,0.375,0.811,0.451,1.186,0.17    c0.4-0.3,0.481-0.662,0.58-1.02c0.017-0.374,0.048-0.745-0.21-1.173C19.303,67.798,19.288,67.775,19.272,67.754z"/>
        <path d="M21.825,75.776c-0.328-0.238-0.788-0.164-1.026,0.164c-0.315,0.435-0.336,0.857-0.371,1.28    c0.048,0.419,0.078,0.839,0.432,1.244c0.038,0.043,0.083,0.085,0.131,0.12c0.359,0.261,0.861,0.182,1.122-0.177    c0.317-0.435,0.309-0.856,0.319-1.278c-0.073-0.418-0.132-0.836-0.485-1.241C21.913,75.848,21.87,75.809,21.825,75.776z"/>
        <path d="M18.13,78.996c-0.252-0.282-0.684-0.306-0.966-0.054l-0.053,0.048c-0.397,0.355-0.54,0.705-0.738,1.049    c-0.122,0.376-0.288,0.707-0.247,1.236l0.007,0.09c0.006,0.073,0.023,0.146,0.051,0.217c0.153,0.382,0.587,0.567,0.969,0.414    c0.573-0.23,0.852-0.718,1.079-1.2c0.152-0.513,0.262-1.061,0.013-1.62C18.217,79.112,18.178,79.05,18.13,78.996z"/>
    </g>
</svg>